<svg id="Layer_1" data-name="Layer 1" xmlns="http://www.w3.org/2000/svg" xmlns:xlink="http://www.w3.org/1999/xlink" viewBox="0 0 511.35 362.46"><defs><style>.cls-1{fill:#72a5d4;}.cls-2{fill:url(#linear-gradient);}.cls-3{fill:#3d6d97;}</style><linearGradient id="linear-gradient" x1="209.42" y1="8.76" x2="209.42" y2="81.42" gradientUnits="userSpaceOnUse"><stop offset="0" stop-color="#3d6d97"/><stop offset="0.33" stop-color="#3b6a94"/><stop offset="0.62" stop-color="#346289"/><stop offset="0.89" stop-color="#2a5577"/><stop offset="1" stop-color="#244e6e"/></linearGradient></defs><path class="cls-1" d="M520.15,346.2H457.81l16.27-50.75h0a19,19,0,0,0-6.28-20.84c-25.91-20.16-107.51-34.88-204.17-34.88S85.31,254.45,59.44,274.62a18.84,18.84,0,0,0-7.22,14.92,19.38,19.38,0,0,0,.9,5.85l93.31,293.46a19.14,19.14,0,0,0,18.23,13.32H361.73A19.14,19.14,0,0,0,380,588.89L401.74,526l61.06,3.5c15.72,0,68.32-66.48,94.56-125.63C583.19,345.65,520.15,346.2,520.15,346.2Zm9.63,63.37c-20.47,43.83-58.29,94.11-70,94.11l-52.6.44L450,370.39H521.1S549.92,366.45,529.78,409.57Z" transform="translate(-52.22 -239.72)"/><ellipse class="cls-2" cx="209.42" cy="45.09" rx="198.09" ry="36.33"/><path class="cls-3" d="M196.13,484.56l26.44-4.16q2.24,15.9,12.41,24.37t28.45,8.46q18.42,0,27.33-7.5t8.92-17.6q0-9.08-7.88-14.27-5.49-3.56-27.33-9.06-29.42-7.43-40.78-12.85a38.91,38.91,0,0,1-23.11-36.17,40.61,40.61,0,0,1,4.83-19.54,43.28,43.28,0,0,1,13.15-14.93q6.24-4.6,17-7.8a80.86,80.86,0,0,1,23.1-3.19q18.57,0,32.61,5.34T312,390.15q6.67,9.14,9.21,24.44l-26.15,3.56q-1.79-12.18-10.32-19T260.6,392.3q-18.42,0-26.29,6.09t-7.88,14.27A14.78,14.78,0,0,0,229.7,422q3.27,4.31,10.25,7.13,4,1.49,23.63,6.83,28.37,7.57,39.59,12.41a40.13,40.13,0,0,1,17.6,14q6.39,9.22,6.39,22.88a44.92,44.92,0,0,1-7.8,25.19q-7.8,11.81-22.51,18.27t-33.27,6.46q-30.76,0-46.88-12.78T196.13,484.56Z" transform="translate(-52.22 -239.72)"/></svg>