<?xml version="1.0" encoding="utf-8"?>
<!-- Generator: Adobe Illustrator 27.0.1, SVG Export Plug-In . SVG Version: 6.00 Build 0)  -->
<svg version="1.1" id="Layer_1" xmlns="http://www.w3.org/2000/svg" xmlns:xlink="http://www.w3.org/1999/xlink" x="0px" y="0px"
	 viewBox="0 0 511.4 362.5" style="enable-background:new 0 0 511.4 362.5;" xml:space="preserve">
<style type="text/css">
	.st0{fill:#FFFFFF;stroke:#000000;stroke-width:6;stroke-miterlimit:10;}
</style>
<path class="st0" d="M457.7,110.1h-59.3l15.5-48.3l0,0c2.4-7.2,0-15.1-6-19.8C383.2,22.8,305.5,8.8,213.5,8.8S43.8,22.8,19.2,42
	c-4.4,3.4-6.9,8.7-6.9,14.2c0,1.9,0.3,3.8,0.9,5.6L102,341c2.4,7.5,9.4,12.7,17.3,12.7h187.6c7.9,0,15-5.1,17.4-12.6l20.7-59.9
	l58.1,3.3c15,0,65-63.3,90-119.6C517.7,109.6,457.7,110.1,457.7,110.1z M466.8,170.4c-19.5,41.7-55.5,89.6-66.6,89.6l-50.1,0.4
	l40.8-127.3h67.7C458.6,133.1,486,129.4,466.8,170.4z"/>
<ellipse cx="211.7" cy="51.7" rx="188.5" ry="34.6"/>
<path d="M149.3,241.8l25.2-4c1.4,10.1,5.4,17.8,11.8,23.2s15.5,8.1,27.1,8.1c11.7,0,20.4-2.4,26-7.1s8.5-10.3,8.5-16.8
	c0-5.8-2.5-10.3-7.5-13.6c-3.5-2.3-12.2-5.1-26-8.6c-18.7-4.7-31.6-8.8-38.8-12.2c-13.6-6-22.2-19.6-22-34.4
	c-0.1-6.5,1.5-12.9,4.6-18.6c3-5.6,7.3-10.5,12.5-14.2c4-2.9,9.4-5.4,16.2-7.4c7.1-2.1,14.5-3.1,22-3c11.8,0,22.1,1.7,31,5.1
	s15.5,8,19.7,13.8c4.2,5.8,7.2,13.6,8.8,23.3l-24.9,3.4c-1.1-7.7-4.4-13.8-9.8-18.1c-5.4-4.3-13.1-6.5-23-6.5c-11.7,0-20,1.9-25,5.8
	s-7.5,8.4-7.5,13.6c0,3.2,1.1,6.4,3.1,8.9c2.1,2.7,5.3,5,9.8,6.8c2.5,0.9,10,3.1,22.5,6.5c18,4.8,30.6,8.7,37.7,11.8
	c6.7,2.8,12.6,7.4,16.8,13.3c4.1,5.8,6.1,13.1,6.1,21.8c0,8.6-2.6,16.9-7.4,24c-4.9,7.5-12.1,13.3-21.4,17.4
	c-9.3,4.1-19.9,6.1-31.7,6.1c-19.5,0-34.4-4.1-44.6-12.2S152.1,257.7,149.3,241.8z"/>
</svg>
